<?xml version="1.0" encoding="UTF-8"?>
<svg id="Layer_1" data-name="Layer 1" xmlns="http://www.w3.org/2000/svg" viewBox="0 0 1000 1000">
  <defs>
    <style>
      .cls-1 {
        fill: #032044;
      }

      .cls-2 {
        fill: #f55600;
      }
    </style>
  </defs>
  <path class="cls-2" d="M502.62,388.22c.84,8.01,2.95,18.14,4.64,25.31,21.93,85.2,114.73,118.1,233.26,93.64v-87.31c-94.06,19.4-210.48,8.44-237.05-98.7h-7.59c-26.57,107.14-142.99,118.1-237.05,98.7v87.31c118.53,24.46,211.32-8.44,233.26-93.64,1.69-7.17,3.8-17.29,4.64-25.31h5.91ZM503.46,468.36c22.36,94.48,121.48,121.06,234.94,98.7-6.33,34.59-20.25,67.49-41.76,94.48-126.54,6.75-183.06-41.76-194.03-126.12h-5.91c-10.97,84.36-67.49,132.87-194.03,126.12-21.51-27-35.43-59.9-41.76-94.48,113.46,22.36,212.59-4.22,234.94-98.7h7.59ZM505.15,279.82c35.85,92.37,156.49,96.17,235.36,80.14v-80.14h-235.36ZM494.18,279.82h-235.36v80.14c78.88,16.03,199.51,12.23,235.36-80.14ZM496.29,615.57c-16.45,63.27-70.44,96.17-121.06,102.92l124.43,67.49,124.43-67.49c-50.62-6.75-104.61-39.65-121.06-102.92h-6.75Z"/>
  <path class="cls-1" d="M16.05,525.12l.88,25.72-14.57.5-2.35-69.09,14.57-.5.88,25.72,64.88-2.21.6,17.64-64.88,2.21ZM86.84,423.77l2.45-17.59-78.73-10.97-2.45,17.59,31,4.32-4.83,34.74-31.02-4.32-2.43,17.48,78.73,10.97,2.43-17.48-33.39-4.66,4.85-34.73,33.39,4.66ZM17.76,367.88l17.15-52.03,13.84,4.56-11.62,35.26,15.9,5.24,7.13-21.63,13.74,4.53-7.13,21.63,18.17,5.99,11.76-35.69,13.84,4.56-17.29,52.46-75.5-24.88ZM131.56,293.1c-4.76,3.08-9.78,4.61-15.05,4.61-5.27,0-10.48-1.6-15.65-4.8l-43.37-26.87,9.36-15.1,43.37,26.87c2.65,1.64,5.29,2.49,7.92,2.56,2.64.07,5.13-.6,7.47-2,2.34-1.41,4.4-3.53,6.16-6.37,1.76-2.84,2.76-5.64,2.99-8.4.23-2.76-.28-5.31-1.55-7.66-1.27-2.35-3.19-4.32-5.78-5.92l-43.37-26.87,9.3-15.01,43.37,26.87c5.16,3.2,8.92,7.16,11.27,11.87,2.35,4.72,3.22,9.88,2.6,15.48-.61,5.6-2.76,11.38-6.44,17.31-3.64,5.87-7.84,10.35-12.6,13.43ZM109.33,187.12l13.71-14.93,63.98,14.69-24.09-18.72-19.63-18.03,11.94-13,58.55,53.77-13.71,14.93-64.14-14.68,24.25,18.72,19.63,18.03-11.94,13-58.55-53.77ZM216.42,170.7l-32.11-38.77-9.3-11.23,13.6-11.26,9.3,11.23,32.11,38.77,9.3,11.23-13.6,11.26-9.3-11.23ZM198.59,99.88l15.55-9.94,39.01,31.43,13.81,12.93-5.94-17.96-12.15-48.6,15.35-9.81,19.88,81.64-19.86,12.7-65.65-52.38ZM277.68,51.93l50.26-21.8,5.8,13.37-34.06,14.77,6.66,15.36,20.9-9.06,5.76,13.27-20.9,9.06,7.61,17.55,34.48-14.95,5.8,13.37-50.67,21.98-31.63-72.93ZM421.98,71.36c-3.16-4.24-7.19-7.95-12.11-11.14-1.86-1.2-3.82-2.28-5.86-3.23.51-.38.99-.78,1.46-1.18,4.01-3.48,6.81-7.4,8.41-11.77,1.58-4.37,1.86-8.6.82-12.72-1.22-4.79-3.42-8.67-6.58-11.62-3.18-2.95-7.13-4.85-11.85-5.67-4.72-.84-9.91-.55-15.56.89l-32.56,8.25,19.53,77.06,17.1-4.34-7.4-29.25,8.54-2.17c2.07.72,4.05,1.58,5.95,2.55,5,2.61,9.13,5.86,12.38,9.72,3.25,3.88,5.48,8.06,6.71,12.53l17.65-4.49c-1.27-4.68-3.48-9.15-6.62-13.41ZM368.83,32.97l15.46-3.92c2.05-.53,3.97-.59,5.76-.23,1.77.38,3.27,1.16,4.45,2.34,1.2,1.18,2.05,2.72,2.53,4.64.53,2.07.49,3.99-.11,5.78-.61,1.81-1.69,3.33-3.25,4.6-1.56,1.24-3.52,2.17-5.88,2.78l-14,3.54-4.96-19.53ZM445.95,80.9c-4.94-2-8.78-5.17-11.53-9.5-2.75-4.33-4.2-9.54-4.35-15.62l17.24-1.52c.13,3.19.79,5.9,1.97,8.11,1.19,2.22,2.86,3.86,5.01,4.93s4.7,1.47,7.65,1.21c2.34-.21,4.37-.75,6.09-1.62,1.71-.87,2.96-2.05,3.75-3.53.78-1.48,1.09-3.16.93-5.05-.17-1.89-.95-3.4-2.34-4.54-1.4-1.13-3.13-1.99-5.2-2.57-2.07-.58-4.93-1.2-8.57-1.87-5.41-.89-9.93-1.96-13.54-3.21-3.62-1.24-6.79-3.36-9.53-6.36-2.74-3-4.35-7.18-4.82-12.55-.42-4.76.39-9.03,2.42-12.79,2.03-3.76,5.14-6.78,9.32-9.05,4.18-2.27,9.18-3.67,15.01-4.18,5.97-.53,11.3.07,15.99,1.79,4.69,1.72,8.43,4.48,11.25,8.27,2.81,3.79,4.53,8.37,5.15,13.72l-17.58,1.55c-.21-2.42-.91-4.47-2.09-6.16-1.18-1.69-2.76-2.94-4.73-3.76-1.98-.82-4.21-1.11-6.71-.9-2.12.19-3.96.69-5.53,1.52-1.57.82-2.73,1.92-3.48,3.28-.76,1.36-1.06,2.91-.91,4.65.16,1.82.92,3.25,2.27,4.32,1.35,1.06,3.02,1.85,5.01,2.36,1.99.51,4.72,1.03,8.2,1.56,5.57.96,10.18,2.04,13.83,3.24,3.65,1.2,6.89,3.38,9.72,6.52,2.83,3.14,4.5,7.66,5.02,13.56.43,4.84-.39,9.14-2.46,12.91-2.07,3.77-5.27,6.81-9.6,9.13-4.33,2.33-9.52,3.75-15.57,4.29-6.58.58-12.34-.13-17.28-2.14ZM503.8,65.45l1.45-50.32.42-14.57,17.65.51-.42,14.57-1.45,50.32-.42,14.57-17.64-.51.42-14.57ZM558.01,18.56l-25.5-3.53,2-14.44,68.48,9.47-2,14.44-25.5-3.53-8.9,64.3-17.49-2.42,8.9-64.3ZM622.34,64.7l-12.52-53.3,18.53,5.62,5.57,23.23,1.14,13.91,8.45-11,17.64-16.19,18.53,5.62-40.44,37.25-9.32,30.74-16.89-5.12,9.32-30.74ZM695.16,123.55c-3.43-5.87-4.95-12.28-4.58-19.24.37-6.95,2.67-14.03,6.88-21.24,4.22-7.21,9.26-12.68,15.14-16.41,5.88-3.73,12.23-5.53,19.06-5.41,6.83.13,13.69,2.2,20.57,6.22,6.88,4.02,12.03,8.97,15.46,14.85,3.43,5.87,4.94,12.28,4.53,19.21-.41,6.93-2.71,14-6.93,21.21-4.22,7.21-9.25,12.69-15.09,16.44-5.85,3.75-12.16,5.57-18.96,5.47-6.8-.11-13.64-2.17-20.52-6.2-6.95-4.06-12.13-9.03-15.56-14.9ZM729.27,128.72c3.79-.24,7.44-1.67,10.95-4.28,3.51-2.61,6.62-6.24,9.34-10.9,2.72-4.65,4.35-9.13,4.89-13.43.54-4.3,0-8.18-1.63-11.64-1.63-3.46-4.28-6.26-7.95-8.41-3.74-2.18-7.52-3.16-11.34-2.94-3.83.23-7.49,1.64-11,4.25-3.51,2.61-6.62,6.24-9.34,10.9-2.72,4.65-4.34,9.14-4.84,13.46-.51,4.32.07,8.22,1.73,11.7s4.32,6.29,8,8.44c3.67,2.15,7.4,3.1,11.19,2.85ZM803.13,102.56l41.73,35.31-9.42,11.13-28.26-23.91-10.81,12.78,17.3,14.64-9.34,11.04-17.3-14.64-21.77,25.73-13.48-11.4,51.35-60.68ZM877.32,195.87l-15.78-20.33,11.52-8.94,42.38,54.62-11.52,8.94-15.78-20.33-51.29,39.79-10.82-13.95,51.29-39.79ZM923.53,234.65l26.63,47.87-12.74,7.09-18.05-32.44-14.63,8.14,11.07,19.9-12.64,7.03-11.07-19.9-16.72,9.3,18.27,32.84-12.74,7.09-26.85-48.27,69.47-38.64ZM929.54,334.61l28.33-36.56,6.68,18.78-12.11,15.91-7.97,8.52,11.52,1.46,19.44,4.69,6.64,18.67-44.73-10.55-29.81,38.17-6.64-18.67,13.3-17.31,8.11-8.45-11.7-1.64-21.28-5.12-6.57-18.45,46.79,10.55ZM991.37,412.55l-82.82-16.01,2.72,17.9,19.07,3.46,4.6,30.35-17.19,8.96,2.8,18.47,74.36-39.84-3.54-23.3ZM963.21,433.51l-14.62,7.61-3.1-20.46,16.22,2.93,17.88,2.47-16.39,7.44ZM921.88,494.93c2.56-4.68,6.15-8.13,10.77-10.36,4.62-2.23,9.96-3.07,16.02-2.52l-.48,17.3c-3.18-.24-5.95.1-8.29,1.03-2.34.92-4.17,2.39-5.48,4.41-1.31,2.01-2,4.5-2.09,7.46-.06,2.35.24,4.43.91,6.23.67,1.8,1.7,3.18,3.08,4.13,1.38.95,3.02,1.45,4.91,1.5,1.9.05,3.49-.55,4.78-1.81,1.29-1.26,2.34-2.88,3.15-4.87.81-1.99,1.76-4.76,2.85-8.3,1.51-5.28,3.09-9.64,4.75-13.09,1.65-3.45,4.12-6.36,7.42-8.74,3.29-2.38,7.63-3.49,13.02-3.34,4.78.13,8.92,1.42,12.43,3.87,3.5,2.45,6.14,5.88,7.92,10.3,1.78,4.42,2.59,9.55,2.43,15.39-.16,5.99-1.37,11.22-3.62,15.68-2.25,4.46-5.42,7.86-9.51,10.22-4.09,2.35-8.83,3.53-14.22,3.54l.49-17.65c2.43.07,4.55-.39,6.36-1.36,1.81-.98,3.24-2.4,4.28-4.27,1.04-1.87,1.59-4.06,1.66-6.56.06-2.13-.23-4.01-.87-5.66-.64-1.65-1.59-2.93-2.86-3.84-1.27-.91-2.77-1.39-4.52-1.43-1.82-.05-3.34.53-4.55,1.75-1.21,1.22-2.18,2.79-2.92,4.7s-1.57,4.57-2.5,7.96c-1.59,5.42-3.2,9.88-4.81,13.37-1.62,3.49-4.15,6.45-7.59,8.91-3.45,2.45-8.13,3.59-14.05,3.43-4.86-.13-9.04-1.44-12.54-3.93-3.5-2.49-6.16-6.02-7.97-10.59-1.81-4.57-2.63-9.89-2.47-15.96.18-6.6,1.55-12.24,4.11-16.92ZM146.67,725.99l-81.58,21.53,10.23,14.93,18.69-5.15,17.31,25.35-11.6,15.54,10.54,15.42,49.71-68.16-13.31-19.47ZM130.41,757.1l-9.87,13.2-11.68-17.08,15.9-4.39,17.19-5.55-11.54,13.81ZM176.35,788.83l-17.55-18.83,10.66-9.94,47.13,50.57-10.66,9.94-17.55-18.83-47.49,44.26-12.04-12.91,47.49-44.26ZM201.62,896.9c-2.49-4.71-3.39-9.61-2.7-14.69.69-5.08,2.93-10,6.73-14.75l14.17,9.94c-1.96,2.52-3.2,5.02-3.72,7.48-.52,2.46-.3,4.79.66,7,.96,2.2,2.65,4.15,5.07,5.85,1.93,1.35,3.83,2.24,5.7,2.68,1.87.43,3.59.34,5.14-.29,1.55-.63,2.87-1.72,3.96-3.27s1.47-3.21,1.13-4.98-1.11-3.54-2.32-5.32c-1.21-1.78-2.99-4.09-5.35-6.95-3.57-4.17-6.33-7.89-8.3-11.18-1.97-3.28-3.03-6.95-3.2-11.01-.17-4.06,1.3-8.29,4.39-12.71,2.75-3.92,6.11-6.66,10.08-8.23,3.97-1.57,8.29-1.88,12.96-.93,4.66.95,9.39,3.11,14.18,6.46,4.91,3.44,8.6,7.33,11.08,11.67,2.48,4.33,3.57,8.86,3.28,13.57-.29,4.71-1.92,9.32-4.89,13.82l-14.45-10.14c1.39-1.99,2.19-4.01,2.37-6.06.18-2.05-.22-4.02-1.2-5.92-.99-1.9-2.51-3.57-4.56-5.01-1.74-1.22-3.48-2.02-5.2-2.4-1.73-.38-3.32-.29-4.78.27-1.46.56-2.69,1.55-3.69,2.98-1.05,1.49-1.4,3.08-1.04,4.76.35,1.68,1.12,3.36,2.31,5.03,1.19,1.67,2.95,3.83,5.27,6.48,3.65,4.32,6.48,8.11,8.5,11.39,2.02,3.27,3.1,7.02,3.24,11.25.14,4.23-1.49,8.76-4.89,13.61-2.79,3.98-6.19,6.74-10.2,8.29-4.01,1.55-8.42,1.82-13.23.81-4.81-1.01-9.7-3.26-14.68-6.75-5.41-3.79-9.36-8.05-11.85-12.76ZM306.81,872.08l-60.04,59.24,16.28,7.89,13.65-13.77,27.65,13.39-2.34,19.23,16.83,8.14,9.2-83.85-21.22-10.27ZM287.53,914.49l11.62-11.7,12.15-13.35-3.12,17.72-1.98,16.39-18.66-9.05ZM353.2,894l19.51,5.5,15.77,63.72,5.83-29.95,7.23-25.65,16.99,4.79-21.55,76.52-19.51-5.5-15.85-63.86-5.76,30.09-7.22,25.65-16.99-4.79,21.55-76.52ZM496.74,919l-23.56-.82-30.98,78.48,18.1.63,6.92-18.12,30.69,1.08,5.65,18.54,18.66.65-25.48-80.44ZM472.72,964.77l5.88-15.4,5.72-17.13,4.3,17.46,4.81,15.78-20.71-.72ZM524.65,919.51l20.08-2.79,40.01,52.04-6.67-29.77-3.67-26.4,17.48-2.43,10.95,78.74-20.08,2.79-40.14-52.14,6.8,29.87,3.67,26.4-17.48,2.43-10.95-78.73ZM628.56,914.14l-24.42,8.13-4.6-13.83,65.59-21.82,4.6,13.83-24.42,8.13,20.49,61.6-16.75,5.57-20.49-61.6ZM718.31,944.52c-6.8-.09-13.08-2.1-18.84-6-5.76-3.9-10.64-9.52-14.64-16.86-4-7.33-6.08-14.48-6.24-21.44-.16-6.96,1.57-13.33,5.2-19.12,3.63-5.79,8.95-10.59,15.95-14.41,7-3.82,13.9-5.68,20.7-5.58,6.8.1,13.06,2.11,18.79,6.03,5.73,3.93,10.59,9.55,14.59,16.88,4,7.33,6.1,14.47,6.29,21.41.2,6.94-1.5,13.29-5.1,19.06-3.6,5.77-8.9,10.56-15.9,14.38-7.07,3.86-14,5.73-20.8,5.63ZM740.35,917.98c1.75-3.37,2.41-7.24,1.98-11.59-.43-4.35-1.93-8.89-4.51-13.62s-5.58-8.44-8.98-11.12c-3.41-2.68-7.01-4.22-10.82-4.61-3.8-.39-7.57.43-11.3,2.47-3.8,2.07-6.59,4.81-8.37,8.2-1.78,3.39-2.46,7.26-2.03,11.62.43,4.35,1.93,8.89,4.51,13.62s5.59,8.43,9.03,11.09c3.44,2.66,7.08,4.18,10.92,4.55s7.62-.46,11.35-2.49c3.73-2.04,6.47-4.74,8.22-8.12ZM740.3,844.79l15.64-12.9,61.35,23.36-21.28-21.86-16.96-20.56,13.62-11.23,50.59,61.32-15.64,12.9-61.51-23.37,21.44,21.88,16.96,20.56-13.62,11.23-50.59-61.32ZM848.88,835.3l-36.9-34.24-10.68-9.92,12.01-12.94,10.69,9.92,36.9,34.24,10.68,9.92-12.01,12.94-10.68-9.91ZM892.83,801.55c-6.14,2.92-12.66,3.89-19.56,2.93-6.89-.96-13.75-3.84-20.58-8.66-6.83-4.81-11.85-10.3-15.07-16.47-3.22-6.17-4.48-12.65-3.78-19.45.7-6.79,3.35-13.45,7.94-19.97,4.59-6.52,9.96-11.23,16.1-14.15,6.14-2.91,12.65-3.88,19.52-2.89,6.87.99,13.72,3.89,20.55,8.7,6.83,4.81,11.86,10.29,15.1,16.43,3.24,6.14,4.52,12.59,3.84,19.36-.68,6.77-3.32,13.41-7.91,19.92-4.64,6.58-10.03,11.33-16.17,14.24ZM900.88,768c.08-3.8-1.03-7.56-3.34-11.27-2.3-3.71-5.66-7.12-10.07-10.23-4.41-3.11-8.73-5.11-12.97-6.01-4.24-.9-8.16-.69-11.74.64-3.58,1.33-6.6,3.73-9.05,7.2-2.49,3.54-3.79,7.22-3.89,11.05-.1,3.83,1,7.6,3.31,11.32,2.3,3.72,5.66,7.13,10.07,10.23,4.41,3.11,8.74,5.09,13.01,5.96,4.26.87,8.2.62,11.8-.74,3.61-1.36,6.63-3.78,9.08-7.25,2.45-3.47,3.71-7.11,3.79-10.91ZM929.3,663.55l29.31-14.94-14.94-29.31-29.31,14.94,14.94,29.31ZM56.01,619.3l-14.94,29.31,29.31,14.94,14.94-29.31-29.31-14.94Z"/>
</svg>