<?xml version="1.0" encoding="UTF-8"?>
<svg id="Layer_1" data-name="Layer 1" xmlns="http://www.w3.org/2000/svg" viewBox="0 0 1920 278">
  <defs>
    <style>
      .cls-1 {
        fill: #f55600;
      }

      .cls-2 {
        fill: #fff;
      }
    </style>
  </defs>
  <path class="cls-2" d="M899.97,90.15c-8.16-10.29-22.44-16.01-36.22-16.01-37.21,0-59.14,29.71-59.14,65.81s20.83,65.81,58.87,65.81c13.8,0,28.27-5.72,36.5-16.04l.99,13.27h29.71v-126.06h-29.71l-.99,13.23ZM868.75,179.94c-19.99,0-32.49-17.77-32.49-39.98s12.5-39.98,32.49-39.98c15.46,0,25.26,9.9,30.82,21.08v37.82c-5.56,11.17-15.36,21.08-30.82,21.08ZM1066.73,122.74v80.25h-31.1v-77.47c0-13.05-7.5-23.88-21.66-23.88-15.01,0-27.53,12.39-33.32,24.79v76.56h-31.1v-125.51h29.99l.87,17.43c9.63-13.87,25.03-19.93,40.22-19.93,29.43,0,46.09,19.16,46.09,47.76ZM451.14,44.44h32.76v98.02c0,42.76-28.6,63.31-68.03,63.31-41.65,0-66.64-22.49-66.64-62.2V44.44h32.76v95.8c0,24.71,14.44,37.21,34.71,37.21s34.43-12.5,34.43-37.21V44.44ZM707.7,87.2c0,11.94,12.22,16.66,29.71,19.71,30.82,5.28,58.87,14.99,58.87,50.54,0,32.49-26.1,48.31-62.2,48.31-41.65,0-66.36-22.77-65.25-59.7h33.32c.28,20.83,11.94,32.49,31.93,32.49,16.38,0,27.21-5,27.21-18.33s-10.27-19.16-31.93-22.77c-26.1-4.44-56.64-12.5-56.64-47.48,0-30.82,26.1-48.31,59.98-48.31,36.65,0,63.03,19.71,63.59,52.2h-33.32c-.56-14.44-11.66-24.99-30.27-24.99-14.44,0-24.99,6.66-24.99,18.33ZM497.79,44.44h134.95v33.6l-51.09-12.77v137.72h-32.76V65.26l-51.09,12.77v-33.6ZM1542.09,74.7c-38.87,0-63.03,26.38-63.03,65.53s24.16,65.53,63.03,65.53,63.03-26.38,63.03-65.53-24.16-65.53-63.03-65.53ZM1542.09,180.5c-20.27,0-31.65-17.49-31.65-40.26s11.38-40.26,31.65-40.26,31.65,17.49,31.65,40.26-11.38,40.26-31.65,40.26ZM1750.07,35.28h33.32v29.99h-33.32v-29.99ZM1856.97,74.7c-38.87,0-63.03,26.38-63.03,65.53s24.16,65.53,63.03,65.53,63.03-26.38,63.03-65.53-24.16-65.53-63.03-65.53ZM1856.97,180.5c-20.27,0-31.65-17.49-31.65-40.26s11.38-40.26,31.65-40.26,31.65,17.49,31.65,40.26-11.38,40.26-31.65,40.26ZM1751.18,77.48h31.1v125.51h-31.1v-125.51ZM1386.32,122.74v80.25h-31.1v-77.47c0-13.05-7.5-23.88-21.66-23.88-15.01,0-27.53,12.39-33.32,24.79v76.56h-31.1v-125.51h29.99l.87,17.43c9.63-13.87,25.03-19.93,40.22-19.93,29.43,0,46.09,19.16,46.09,47.76ZM1733.96,122.74v80.25h-31.1v-77.47c0-13.05-7.5-23.88-21.66-23.88-15.01,0-27.53,12.39-33.32,24.79v76.56h-31.1v-125.51h29.99l.87,17.43c9.63-13.87,25.03-19.93,40.22-19.93,29.43,0,46.09,19.16,46.09,47.76ZM1135.59,44.44l17.65,23.29-47.92,135.26h32.76l13-37.76h63.9l12.79,37.76h33.88l-54.7-158.55h-71.36ZM1160.45,138.01l12.9-37.49,9.76-32.11,9.96,32.11,12.7,37.49h-45.31ZM1443.24,77.48h33.04v25.27h-33.04v56.09c0,13.88,3.89,18.88,18.05,18.88h14.99v25.27h-22.49c-31.38,0-41.65-16.1-41.65-40.54v-59.7h-19.99v-25.27h19.99v-22.77l31.1-15.55v38.32Z"/>
  <path class="cls-1" d="M133.74,59.63c.46,4.4,1.62,9.95,2.55,13.88,12.03,46.74,62.94,64.79,127.96,51.37v-47.9c-51.6,10.64-115.46,4.63-130.04-54.15h-4.17C115.46,81.62,51.6,87.63,0,76.99v47.9c65.02,13.42,115.93-4.63,127.96-51.37.93-3.93,2.08-9.49,2.55-13.88h3.24ZM134.21,103.6c12.26,51.83,66.64,66.41,128.88,54.15-3.47,18.97-11.11,37.02-22.91,51.83-69.42,3.7-100.42-22.91-106.44-69.19h-3.24c-6.02,46.28-37.02,72.89-106.44,69.19-11.8-14.81-19.44-32.86-22.91-51.83,62.24,12.26,116.62-2.31,128.88-54.15h4.17ZM135.13.17c19.67,50.67,85.85,52.76,129.12,43.96V.17h-129.12ZM129.12.17H0v43.96C43.27,52.92,109.45,50.84,129.12.17ZM130.27,184.35c-9.02,34.71-38.64,52.76-66.41,56.46l68.26,37.02,68.26-37.02c-27.77-3.7-57.38-21.75-66.41-56.46h-3.7Z"/>
</svg>