<?xml version="1.0" encoding="UTF-8"?>
<svg id="Layer_1" data-name="Layer 1" xmlns="http://www.w3.org/2000/svg" viewBox="0 0 1920 344">
  <defs>
    <style>
      .cls-1 {
        fill: #fff;
      }
    </style>
  </defs>
  <path class="cls-1" d="M165.57,73.75c.57,5.44,2.01,12.32,3.15,17.19,14.9,57.86,77.92,80.21,158.41,63.59v-59.3c-63.88,13.18-142.94,5.73-160.99-67.03h-5.16C142.94,100.96,63.88,108.41,0,95.23v59.3c80.49,16.61,143.52-5.73,158.41-63.59,1.15-4.87,2.58-11.74,3.15-17.19h4.01ZM166.15,128.17c15.18,64.17,82.5,82.21,159.56,67.03-4.3,23.49-13.75,45.83-28.36,64.17-85.94,4.58-124.32-28.36-131.77-85.65h-4.01c-7.45,57.29-45.83,90.23-131.77,85.65-14.61-18.33-24.06-40.68-28.36-64.17,77.06,15.18,144.37-2.86,159.56-67.03h5.16ZM167.29.13c24.35,62.73,106.28,65.31,159.84,54.43V.13h-159.84ZM159.84.13H0v54.43C53.57,65.44,135.49,62.86,159.84.13ZM161.28,228.15c-11.17,42.97-47.84,65.31-82.21,69.9l84.5,45.83,84.5-45.83c-34.37-4.58-71.04-26.93-82.21-69.9h-4.58Z"/>
  <path class="cls-1" d="M426.65,249.06h-18.77v-9.72h49.11v9.72h-18.77v48.94h-11.56v-48.94ZM475.25,298.01h-10.73v-60.34h10.73v21.96c2.77-3.85,7.38-6.03,12.82-6.03,9.55,0,15.76,5.95,15.76,17.35v27.07h-10.73v-25.48c0-5.95-3.19-9.72-8.63-9.72-4.94,0-9.22,3.77-9.22,11.65v23.55ZM533.16,298.93c-12.32,0-22.63-8.55-22.63-22.96s10.64-22.38,22.21-22.38,21.79,7.96,21.79,23.38v2.35h-33.1c.84,6.87,5.87,11.15,12.07,11.15,4.02,0,8.05-1.34,10.06-5.2h10.56c-2.68,9.55-11.98,13.66-20.95,13.66ZM521.35,271.69h22.13c-.5-5.87-4.86-9.72-10.89-9.72-5.7,0-10.48,3.6-11.23,9.72ZM583.61,274.63v-35.28h11.57v34.7c0,9.55,5.28,14.92,13.07,14.92s12.99-5.28,12.99-14.83v-34.78h11.56v35.2c0,15.59-10.22,24.47-24.64,24.47s-24.56-8.72-24.56-24.39ZM653.09,298.01h-10.73v-43.41h10.56v5.2c2.77-3.94,7.46-6.2,12.99-6.2,9.55,0,15.76,5.95,15.76,17.35v27.07h-10.73v-25.48c0-5.95-3.18-9.72-8.63-9.72-4.94,0-9.22,3.77-9.22,11.65v23.55ZM691.48,237.67h10.89v10.06h-10.89v-10.06ZM691.56,254.6h10.73v43.41h-10.73v-43.41ZM735.56,298.01h-11.4l-16.09-43.41h11.23l10.81,31.76,10.89-31.76h10.64l-16.09,43.41ZM775.53,298.93c-12.32,0-22.63-8.55-22.63-22.96s10.64-22.38,22.21-22.38,21.79,7.96,21.79,23.38v2.35h-33.1c.84,6.87,5.87,11.15,12.07,11.15,4.02,0,8.05-1.34,10.06-5.2h10.56c-2.68,9.55-11.98,13.66-20.95,13.66ZM763.72,271.69h22.13c-.5-5.87-4.86-9.72-10.89-9.72-5.7,0-10.48,3.6-11.23,9.72ZM815.26,298.01h-10.73v-43.41h10.48v6.62c.92-1.51,2.01-2.93,3.44-4.11,2.6-2.01,5.03-2.85,8.8-2.85,1.17,0,2.26.08,3.02.25v10.14c-2.1-.17-3.1-.17-4.28-.17-4.69,0-10.73,1.68-10.73,10.14v23.38ZM833.86,284.26h10.14c.75,4.61,4.69,6.7,9.72,6.7,4.11,0,8.05-1.59,8.05-5.03,0-3.1-2.93-4.44-8.72-5.45l-4.36-.75c-8.72-1.59-14-5.53-14-12.32,0-8.72,7.96-13.91,17.77-13.91s17.43,4.86,18.52,13.58h-9.97c-1.01-3.69-4.19-5.53-8.8-5.53-4.19,0-7.38,1.93-7.38,4.86,0,2.77,2.43,3.77,7.38,4.69l4.36.75c9.55,1.68,15.5,5.45,15.5,12.99,0,9.22-8.8,14.16-18.52,14.16-10.23,0-18.6-4.69-19.69-14.75ZM880.29,237.67h10.89v10.06h-10.89v-10.06ZM880.38,254.6h10.73v43.41h-10.73v-43.41ZM905.02,286.36v-23.55h-7.29v-8.21h7.29v-10.56h10.64v10.56h10.06v8.21h-10.06v21.45c0,4.61,1.43,5.36,4.86,5.36h5.2v8.3c-3.1.17-4.94.17-8.63.17-7.38,0-12.07-2.18-12.07-11.73ZM951.03,313.93h-11.06l7.88-19.02-17.35-40.31h11.4l11.23,28.24,10.39-28.24h10.89l-23.38,59.33ZM997.87,276.05c0-13.66,10.31-22.46,22.88-22.46s22.8,8.63,22.8,22.46-10.22,22.88-22.8,22.88-22.88-8.8-22.88-22.88ZM1032.49,276.05c0-7.88-4.78-13.41-11.73-13.41s-11.82,5.45-11.82,13.41,4.78,13.83,11.82,13.83,11.73-5.53,11.73-13.83ZM1064.58,262.81v35.2h-10.47v-35.2h-7.46v-8.21h7.46v-4.69c0-9.55,5.2-12.4,13.16-12.4,2.77,0,4.69.08,7.12.17v8.3c-1.59-.08-3.27-.17-4.94-.17-2.77,0-4.86.84-4.86,4.78v4.02h9.81v8.21h-9.81ZM1117.21,249.06h-18.77v-9.72h49.11v9.72h-18.77v48.94h-11.56v-48.94ZM1168.25,298.93c-12.32,0-22.63-8.55-22.63-22.96s10.64-22.38,22.21-22.38,21.79,7.96,21.79,23.38v2.35h-33.1c.84,6.87,5.87,11.15,12.07,11.15,4.02,0,8.05-1.34,10.06-5.2h10.56c-2.68,9.55-11.98,13.66-20.95,13.66ZM1156.44,271.69h22.13c-.5-5.87-4.86-9.72-10.89-9.72-5.7,0-10.48,3.6-11.23,9.72ZM1212.75,282.84l-9.81,15.17h-11.82l15.09-21.87-14.75-21.54h12.24l9.55,14.67,9.39-14.67h11.73l-14.67,21.12,15,22.29h-12.32l-9.64-15.17ZM1266.31,292.64c-2.85,3.94-7.38,6.29-13.83,6.29-8.05,0-15.84-4.53-15.84-13.41s7.54-12.4,19.02-14.25l9.89-1.59v-.5c0-5.45-3.02-7.54-8.13-7.54s-8.21,2.43-9.14,6.87h-10.23c1.26-9.22,9.39-14.92,19.78-14.92s18.35,4.27,18.27,16.34l-.17,19.11c0,1.43.08,3.69.42,8.97h-9.89l-.17-5.36ZM1254.91,290.8c5.87,0,10.64-3.52,10.64-10.47v-3.02c-12.99,1.68-18.44,3.02-18.44,7.71,0,3.77,3.27,5.78,7.79,5.78ZM1282.65,284.26h10.14c.75,4.61,4.69,6.7,9.72,6.7,4.11,0,8.05-1.59,8.05-5.03,0-3.1-2.93-4.44-8.72-5.45l-4.36-.75c-8.72-1.59-14-5.53-14-12.32,0-8.72,7.96-13.91,17.77-13.91s17.43,4.86,18.52,13.58h-9.97c-1.01-3.69-4.19-5.53-8.8-5.53-4.19,0-7.38,1.93-7.38,4.86,0,2.77,2.43,3.77,7.38,4.69l4.36.75c9.55,1.68,15.5,5.45,15.5,12.99,0,9.22-8.8,14.16-18.52,14.16-10.23,0-18.6-4.69-19.69-14.75ZM1377.1,292.64c-2.85,3.94-7.38,6.29-13.83,6.29-8.05,0-15.84-4.53-15.84-13.41s7.54-12.4,19.02-14.25l9.89-1.59v-.5c0-5.45-3.02-7.54-8.13-7.54s-8.21,2.43-9.14,6.87h-10.22c1.26-9.22,9.38-14.92,19.78-14.92s18.35,4.27,18.27,16.34l-.17,19.11c0,1.43.08,3.69.42,8.97h-9.89l-.17-5.36ZM1365.7,290.8c5.87,0,10.64-3.52,10.64-10.47v-3.02c-12.99,1.68-18.44,3.02-18.44,7.71,0,3.77,3.27,5.78,7.79,5.78ZM1398.55,286.36v-23.55h-7.29v-8.21h7.29v-10.56h10.64v10.56h10.06v8.21h-10.06v21.45c0,4.61,1.43,5.36,4.86,5.36h5.2v8.3c-3.1.17-4.94.17-8.63.17-7.38,0-12.07-2.18-12.07-11.73ZM1444.98,279.65h11.23c1.01,6.87,6.45,10.23,13.33,10.23s11.65-2.93,11.65-7.88c0-4.44-4.19-6.7-11.15-8.13l-6.03-1.34c-11.65-2.51-17.43-7.88-17.43-16.59,0-10.56,9.97-17.85,22.12-17.85s21.71,6.54,22.88,17.93h-11.23c-.84-5.45-5.2-8.72-11.65-8.72-6.03,0-10.89,3.1-10.89,7.71,0,3.94,2.85,5.7,9.14,7.04l6.87,1.43c11.4,2.35,18.77,7.54,18.77,17.35,0,12.15-11.06,18.19-23.05,18.19-13.07,0-23.38-6.29-24.55-19.36ZM1527.87,292.64c-2.85,3.94-7.38,6.29-13.83,6.29-8.05,0-15.84-4.53-15.84-13.41s7.54-12.4,19.02-14.25l9.89-1.59v-.5c0-5.45-3.02-7.54-8.13-7.54s-8.21,2.43-9.14,6.87h-10.23c1.26-9.22,9.39-14.92,19.78-14.92s18.35,4.27,18.27,16.34l-.17,19.11c0,1.43.08,3.69.42,8.97h-9.89l-.17-5.36ZM1516.47,290.8c5.87,0,10.64-3.52,10.64-10.47v-3.02c-12.99,1.68-18.44,3.02-18.44,7.71,0,3.77,3.27,5.78,7.79,5.78ZM1557.45,298.01h-10.73v-43.41h10.56v5.2c2.77-3.94,7.46-6.2,12.99-6.2,9.55,0,15.76,5.95,15.76,17.35v27.07h-10.73v-25.48c0-5.95-3.19-9.72-8.63-9.72-4.94,0-9.22,3.77-9.22,11.65v23.55ZM1654,284.35h-25.23l-5.03,13.66h-11.65l22.96-58.66h13.24l22.88,58.66h-12.15l-5.03-13.66ZM1650.48,274.88l-9.05-24.47-9.14,24.47h18.19ZM1687.94,298.01h-10.73v-43.41h10.56v5.2c2.77-3.94,7.46-6.2,12.99-6.2,9.55,0,15.76,5.95,15.76,17.35v27.07h-10.73v-25.48c0-5.95-3.18-9.72-8.63-9.72-4.94,0-9.22,3.77-9.22,11.65v23.55ZM1729.84,286.36v-23.55h-7.29v-8.21h7.29v-10.56h10.64v10.56h10.06v8.21h-10.06v21.45c0,4.61,1.43,5.36,4.86,5.36h5.2v8.3c-3.1.17-4.94.17-8.63.17-7.38,0-12.07-2.18-12.07-11.73ZM1754.23,276.05c0-13.66,10.31-22.46,22.88-22.46s22.8,8.63,22.8,22.46-10.22,22.88-22.8,22.88-22.88-8.8-22.88-22.88ZM1788.84,276.05c0-7.88-4.78-13.41-11.73-13.41s-11.82,5.45-11.82,13.41,4.78,13.83,11.82,13.83,11.73-5.53,11.73-13.83ZM1817.84,298.01h-10.73v-43.41h10.56v5.2c2.77-3.94,7.46-6.2,12.99-6.2,9.55,0,15.76,5.95,15.76,17.35v27.07h-10.73v-25.48c0-5.95-3.19-9.72-8.63-9.72-4.94,0-9.22,3.77-9.22,11.65v23.55ZM1855.81,237.67h10.89v10.06h-10.89v-10.06ZM1855.89,254.6h10.73v43.41h-10.73v-43.41ZM1874.33,276.05c0-13.66,10.31-22.46,22.88-22.46s22.8,8.63,22.8,22.46-10.22,22.88-22.8,22.88-22.88-8.8-22.88-22.88ZM1908.94,276.05c0-7.88-4.78-13.41-11.73-13.41s-11.82,5.45-11.82,13.41,4.78,13.83,11.82,13.83,11.73-5.53,11.73-13.83Z"/>
  <path class="cls-1" d="M938.05,72.21c-7.86-9.91-21.6-15.41-34.87-15.41-35.82,0-56.94,28.6-56.94,63.35s20.05,63.35,56.67,63.35c13.29,0,27.21-5.51,35.13-15.44l.95,12.77h28.6V59.47h-28.6l-.95,12.73ZM908,158.64c-19.25,0-31.27-17.11-31.27-38.49s12.03-38.49,31.27-38.49c14.88,0,24.32,9.53,29.67,20.29v36.4c-5.35,10.76-14.79,20.29-29.67,20.29ZM1098.58,103.58v77.25h-29.94v-74.58c0-12.56-7.22-22.99-20.85-22.99-14.45,0-26.5,11.93-32.08,23.87v73.7h-29.94V60.01h28.87l.84,16.78c9.27-13.36,24.09-19.19,38.72-19.19,28.33,0,44.37,18.44,44.37,45.98ZM505.97,28.2h31.54v94.36c0,41.16-27.53,60.94-65.49,60.94-40.1,0-64.15-21.65-64.15-59.88V28.2h31.54v92.22c0,23.79,13.9,35.82,33.41,35.82s33.15-12.03,33.15-35.82V28.2ZM752.96,69.36c0,11.49,11.76,16.04,28.6,18.98,29.67,5.08,56.67,14.43,56.67,48.65,0,31.27-25.13,46.51-59.88,46.51-40.1,0-63.89-21.92-62.82-57.47h32.08c.27,20.05,11.49,31.27,30.74,31.27,15.77,0,26.2-4.81,26.2-17.64s-9.89-18.44-30.74-21.92c-25.13-4.28-54.53-12.03-54.53-45.71,0-29.67,25.13-46.51,57.74-46.51,35.28,0,60.68,18.98,61.21,50.25h-32.08c-.53-13.9-11.23-24.06-29.14-24.06-13.9,0-24.06,6.42-24.06,17.64ZM550.88,28.2h129.91v32.34l-49.18-12.3v132.58h-31.54V48.25l-49.18,12.3V28.2ZM1556.2,57.33c-37.42,0-60.68,25.39-60.68,63.08s23.26,63.08,60.68,63.08,60.68-25.39,60.68-63.08-23.26-63.08-60.68-63.08ZM1556.2,159.18c-19.51,0-30.47-16.84-30.47-38.76s10.96-38.76,30.47-38.76,30.47,16.84,30.47,38.76-10.96,38.76-30.47,38.76ZM1756.41,19.38h32.08v28.87h-32.08v-28.87ZM1859.32,57.33c-37.42,0-60.68,25.39-60.68,63.08s23.26,63.08,60.68,63.08,60.68-25.39,60.68-63.08-23.26-63.08-60.68-63.08ZM1859.32,159.18c-19.51,0-30.47-16.84-30.47-38.76s10.96-38.76,30.47-38.76,30.47,16.84,30.47,38.76-10.96,38.76-30.47,38.76ZM1757.48,60.01h29.94v120.82h-29.94V60.01ZM1406.25,103.58v77.25h-29.94v-74.58c0-12.56-7.22-22.99-20.85-22.99-14.45,0-26.5,11.93-32.08,23.87v73.7h-29.94V60.01h28.87l.84,16.78c9.27-13.36,24.09-19.19,38.72-19.19,28.33,0,44.37,18.44,44.37,45.98ZM1740.91,103.58v77.25h-29.94v-74.58c0-12.56-7.22-22.99-20.85-22.99-14.45,0-26.5,11.93-32.08,23.87v73.7h-29.94V60.01h28.87l.84,16.78c9.27-13.35,24.09-19.19,38.72-19.19,28.33,0,44.37,18.44,44.37,45.98ZM1164.87,28.2l17,22.42-46.13,130.21h31.54l12.51-36.35h61.51l12.31,36.35h32.61l-52.66-152.63h-68.7ZM1188.81,118.28l12.42-36.09,9.39-30.91,9.59,30.91,12.22,36.09h-43.62ZM1461.04,60.01h31.81v24.32h-31.81v54c0,13.37,3.74,18.18,17.37,18.18h14.43v24.32h-21.65c-30.21,0-40.1-15.5-40.1-39.03v-57.47h-19.25v-24.32h19.25v-21.92l29.94-14.97v36.89Z"/>
</svg>