<?xml version="1.0" encoding="UTF-8"?>
<svg id="Layer_1" data-name="Layer 1" xmlns="http://www.w3.org/2000/svg" viewBox="0 0 1920 836">
  <defs>
    <style>
      .cls-1 {
        fill: #032044;
      }

      .cls-2 {
        fill: #f55600;
      }
    </style>
  </defs>
  <path class="cls-2" d="M962.83,104.01c.81,7.67,2.83,17.36,4.44,24.23,21,81.57,109.83,113.06,223.3,89.64v-83.59c-90.05,18.57-201.5,8.08-226.93-94.49h-7.27c-25.44,102.56-136.89,113.06-226.93,94.49v83.59c113.47,23.42,202.3-8.08,223.3-89.64,1.62-6.86,3.63-16.56,4.44-24.23h5.65ZM963.63,180.73c21.4,90.45,116.29,115.89,224.92,94.49-6.06,33.11-19.38,64.61-39.98,90.45-121.14,6.46-175.25-39.98-185.75-120.74h-5.65c-10.5,80.76-64.61,127.2-185.75,120.74-20.59-25.84-33.92-57.34-39.98-90.45,108.62,21.4,203.51-4.04,224.92-94.49h7.27ZM965.25.23c34.32,88.43,149.81,92.07,225.32,76.72V.23h-225.32ZM954.75.23h-225.32v76.72c75.51,15.34,191,11.71,225.32-76.72ZM956.77,321.66c-15.75,60.57-67.43,92.07-115.89,98.53l119.12,64.61,119.12-64.61c-48.46-6.46-100.14-37.96-115.89-98.53h-6.46Z"/>
  <path class="cls-1" d="M673.19,694.45c-9.98-12.58-27.43-19.56-44.28-19.56-45.48,0-72.29,36.32-72.29,80.44s25.46,80.44,71.95,80.44c16.87,0,34.55-7,44.61-19.61l1.21,16.21h36.32v-154.09h-36.32l-1.2,16.17ZM635.02,804.2c-24.44,0-39.71-21.72-39.71-48.87s15.27-48.87,39.71-48.87c18.9,0,30.88,12.11,37.67,25.76v46.22c-6.8,13.66-18.78,25.76-37.67,25.76ZM877.02,734.29v98.09h-38.01v-94.69c0-15.95-9.16-29.19-26.47-29.19-18.34,0-33.65,15.15-40.73,30.31v93.58h-38.01v-153.41h36.66l1.07,21.31c11.77-16.96,30.59-24.37,49.17-24.37,35.98,0,56.34,23.42,56.34,58.38ZM124.56,638.57h40.05v119.81c0,52.27-34.96,77.38-83.15,77.38-50.91,0-81.46-27.49-81.46-76.03v-121.17h40.05v117.09c0,30.21,17.65,45.48,42.43,45.48s42.09-15.27,42.09-45.48v-117.09ZM438.17,690.84c0,14.59,14.93,20.36,36.32,24.1,37.67,6.45,71.95,18.33,71.95,61.77,0,39.71-31.9,59.06-76.03,59.06-50.91,0-81.12-27.83-79.76-72.97h40.73c.34,25.46,14.59,39.71,39.03,39.71,20.02,0,33.26-6.11,33.26-22.4s-12.56-23.42-39.03-27.83c-31.9-5.43-69.24-15.27-69.24-58.04,0-37.67,31.9-59.06,73.31-59.06,44.8,0,77.04,24.1,77.72,63.81h-40.73c-.68-17.65-14.25-30.55-36.99-30.55-17.65,0-30.55,8.15-30.55,22.4ZM181.58,638.57h164.95v41.07l-62.45-15.61v168.34h-40.05v-168.34l-62.45,15.61v-41.07ZM1458.07,675.57c-47.52,0-77.04,32.24-77.04,80.1s29.53,80.1,77.04,80.1,77.04-32.24,77.04-80.1-29.53-80.1-77.04-80.1ZM1458.07,804.88c-24.78,0-38.69-21.38-38.69-49.21s13.92-49.21,38.69-49.21,38.69,21.38,38.69,49.21-13.92,49.21-38.69,49.21ZM1712.29,627.37h40.73v36.66h-40.73v-36.66ZM1842.96,675.57c-47.52,0-77.04,32.24-77.04,80.1s29.53,80.1,77.04,80.1,77.04-32.24,77.04-80.1-29.53-80.1-77.04-80.1ZM1842.96,804.88c-24.78,0-38.69-21.38-38.69-49.21s13.92-49.21,38.69-49.21,38.69,21.38,38.69,49.21-13.92,49.21-38.69,49.21ZM1713.64,678.96h38.01v153.41h-38.01v-153.41ZM1267.67,734.29v98.09h-38.01v-94.69c0-15.95-9.16-29.19-26.47-29.19-18.34,0-33.65,15.15-40.73,30.31v93.58h-38.01v-153.41h36.66l1.07,21.31c11.77-16.96,30.59-24.37,49.17-24.37,35.98,0,56.34,23.42,56.34,58.38ZM1692.6,734.29v98.09h-38.01v-94.69c0-15.95-9.16-29.19-26.47-29.19-18.34,0-33.65,15.15-40.73,30.31v93.58h-38.01v-153.41h36.66l1.07,21.31c11.77-16.96,30.59-24.37,49.17-24.37,35.98,0,56.34,23.42,56.34,58.38ZM961.19,638.57l21.58,28.47-58.57,165.33h40.05l15.89-46.16h78.1l15.64,46.16h41.41l-66.86-193.8h-87.23ZM991.58,752.95l15.77-45.82,11.92-39.25,12.17,39.25,15.52,45.82h-55.39ZM1337.25,678.96h40.39v30.89h-40.39v68.56c0,16.97,4.75,23.08,22.06,23.08h18.33v30.89h-27.49c-38.35,0-50.91-19.69-50.91-49.55v-72.97h-24.44v-30.89h24.44v-27.83l38.01-19.01v46.84Z"/>
</svg>